#!OML:ASF X:\für Bonn\!DataBase\2005_08_10_Bjorn_Final\c3d\bjorn.ASF
:FULLY-SPECIFIED
:DEGREES
80
root -21.896 19.443 0.702355 146.04 -89.354 -140.709
lowerback -14.286 3.65193 -4.64471
upperback 4.76875 6.46497 -6.66621
thorax 13.7172 2.90452 -3.18268
lowerneck -0.203412 -7.30394 6.29002
upperneck 8.59073 -9.91779 -1.53513
head 2.36871 -4.82438 -1.72837
rclavicle -6.75868e-015 9.54166e-015
rhumerus 28.4646 -4.88254 -62.4799
rradius 82.0479
rwrist -7.09363
rhand -29.1764 19.5048
rfingers 7.12502
rthumb -2.52206 -10.46
lclavicle -6.75868e-015 9.54166e-015
lhumerus -23.4392 23.61 74.8639
lradius 15.3428
lwrist -44.2075
lhand -19.0353 -8.93998
lfingers 7.12502
lthumb 7.27112 20.9151
rfemur -12.5295 -14.7607 16.3928
rtibia 24.9166
rfoot -9.04399 21.3897
rtoes 1.4312
lfemur -10.9913 15.5309 -16.2964
ltibia 23.7438
lfoot -10.0154 -14.1594
ltoes -2.14302
81
root -21.8866 19.4445 0.701234 145.886 -89.3337 -140.571
lowerback -14.2629 3.75508 -4.7177
upperback 4.76271 6.62352 -6.78012
thorax 13.7112 2.97645 -3.23117
lowerneck -0.171595 -7.41293 6.42745
upperneck 8.70108 -10.0729 -1.4891
head 2.38972 -4.895 -1.73946
rclavicle -2.38542e-015 -9.54166e-015
rhumerus 29.6728 -4.55787 -60.9357
rradius 79.9381
rwrist -7.62392
rhand -27.1818 18.0781
rfingers 7.12502
rthumb -0.595707 -11.9008
lclavicle -2.38542e-015 -9.54166e-015
lhumerus -23.2274 23.3883 74.875
lradius 15.3967
lwrist -43.8465
lhand -19.0932 -8.90068
lfingers 7.12502
lthumb 7.21522 20.9563
rfemur -12.5574 -14.8056 16.4134
rtibia 24.9234
rfoot -8.96817 21.4448
rtoes 1.54622
lfemur -10.9964 15.5356 -16.2797
ltibia 23.7363
lfoot -9.97996 -14.1272
ltoes -2.07832
82
root -21.8775 19.4452 0.700379 146.989 -89.315 -141.693
lowerback -14.2266 3.87177 -4.79061
upperback 4.74424 6.79899 -6.91157
thorax 13.686 3.05748 -3.29585
lowerneck -0.130542 -7.52639 6.56721
upperneck 8.83999 -10.2386 -1.39706
head 2.42053 -4.96918 -1.73697
rclavicle -1.19271e-015 -3.49861e-014
rhumerus 30.7557 -4.14988 -59.3196
rradius 77.8651
rwrist -8.70522
rhand -25.2408 16.8965
rfingers 7.12502
rthumb 1.279 -13.0794
lclavicle -1.19271e-015 -3.49861e-014
lhumerus -23.0367 23.0089 74.8774
lradius 15.4674
lwrist -43.3259
lhand -19.0079 -8.73552
lfingers 7.12502
lthumb 7.29754 21.1186
rfemur -12.5781 -14.8482 16.4152
rtibia 24.9342
rfoot -8.88842 21.5119
rtoes 1.61367
lfemur -10.9933 15.5692 -16.277
ltibia 23.7272
lfoot -9.96289 -14.1014
ltoes -2.06877
83
root -21.8677 19.4455 0.699784 145.804 -89.2873 -140.545
lowerback -14.1628 3.98071 -4.85165
upperback 4.7323 6.95684 -7.01139
thorax 13.6478 3.13043 -3.33749
lowerneck -0.0924322 -7.62894 6.67228
upperneck 8.98504 -10.3881 -1.32078
head 2.45543 -5.0364 -1.7341
rclavicle 5.04913e-014 -2.8625e-014
rhumerus 31.7761 -3.64563 -57.557
rradius 75.8647
rwrist -10.0357
rhand -23.4278 15.8323
rfingers 7.12502
rthumb 3.02998 -14.1259
lclavicle 5.04913e-014 -2.8625e-014
lhumerus -22.8633 22.7665 74.8835
lradius 15.5345
lwrist -42.8509
lhand -18.9168 -8.56492
lfingers 7.12502
lthumb 7.38543 21.2862
rfemur -12.5796 -14.8936 16.4436
rtibia 24.9421
rfoot -8.8098 21.5745
rtoes 1.68196
lfemur -10.9725 15.5961 -16.2382
ltibia 23.7199
lfoot -9.92599 -14.0955
ltoes -2.00706
84
root -21.8583 19.4468 0.698531 146.404 -89.2735 -141.164
lowerback -14.1177 4.099 -4.92856
upperback 4.71993 7.1336 -7.13421
thorax 13.6234 3.21137 -3.39085
lowerneck -0.0700137 -7.73288 6.76678
upperneck 9.12759 -10.5457 -1.18419
head 2.49596 -5.10612 -1.71128
rclavicle -2.34566e-014 5.08889e-014
rhumerus 32.6734 -3.14178 -55.7252
rradius 74.0001
rwrist -11.5116
rhand -21.5117 14.6966
rfingers 7.12502
rthumb 4.88026 -15.2272
lclavicle -2.34566e-014 5.08889e-014
lhumerus -22.6495 22.479 74.8814
lradius 15.5691
lwrist -42.3336
lhand -18.8254 -8.40367
lfingers 7.12502
lthumb 7.4737 21.4443
rfemur -12.6056 -14.9835 16.4483
rtibia 24.9523
rfoot -8.6972 21.6724
rtoes 1.8374
lfemur -10.9709 15.623 -16.2333
ltibia 23.711
lfoot -9.90474 -14.0722
ltoes -2.02859
